<?xml version="1.0" encoding="UTF-8"?>
<svg version="1.1" xmlns="http://www.w3.org/2000/svg" xmlns:xlink="http://www.w3.org/1999/xlink">
<defs>

</defs>
<symbol id="i-arrow" viewBox="0 0 14 14" xmlns="http://www.w3.org/2000/svg"><path d="M5 13.998a.997.997 0 01-.769-1.636l4.47-5.348-4.31-5.358A.998.998 0 014.54.249a.998.998 0 011.456.15l4.82 5.986a.998.998 0 010 1.267l-4.99 5.987a.998.998 0 01-.827.36z"/></symbol>
<symbol id="i-cross" viewBox="0 0 15 14" xmlns="http://www.w3.org/2000/svg"><path d="M8.645 6.999l5.012-5A1.17 1.17 0 0012.002.342L7 5.355l-5-5.012A1.17 1.17 0 00.344 1.998L5.357 7l-5.012 5a1.166 1.166 0 000 1.656 1.165 1.165 0 001.655 0l5.001-5.012 5 5.012a1.165 1.165 0 001.656 0 1.165 1.165 0 000-1.655L8.645 6.999z"/></symbol>
<symbol id="i-github" viewBox="0 0 20 20" xmlns="http://www.w3.org/2000/svg"><path fill-rule="evenodd" clip-rule="evenodd" d="M10 0C4.475 0 0 4.588 0 10.253c0 4.537 2.862 8.369 6.838 9.727.5.09.687-.218.687-.487 0-.243-.013-1.05-.013-1.91C5 18.059 4.35 16.957 4.15 16.38c-.113-.295-.6-1.205-1.025-1.448-.35-.192-.85-.667-.013-.68.788-.012 1.35.744 1.538 1.052.9 1.55 2.337 1.114 2.912.845.088-.666.35-1.115.638-1.371-2.225-.256-4.55-1.14-4.55-5.062 0-1.115.387-2.038 1.025-2.756-.1-.256-.45-1.307.1-2.717 0 0 .837-.269 2.75 1.051.8-.23 1.65-.346 2.5-.346.85 0 1.7.115 2.5.346 1.912-1.333 2.75-1.05 2.75-1.05.55 1.409.2 2.46.1 2.716.637.718 1.025 1.628 1.025 2.756 0 3.934-2.337 4.806-4.562 5.062.362.32.675.936.675 1.897 0 1.371-.013 2.473-.013 2.82 0 .268.188.589.688.486a10.04 10.04 0 004.932-3.74A10.447 10.447 0 0020 10.253C20 4.588 15.525 0 10 0z"/></symbol>
<symbol id="i-heart" viewBox="0 0 22 17" xmlns="http://www.w3.org/2000/svg"><path d="M11 17a.998.998 0 01-.71-.29L2.52 8.93a5.26 5.26 0 010-7.4 5.24 5.24 0 017.4 0L11 2.61l1.08-1.08a5.24 5.24 0 017.4 0 5.26 5.26 0 010 7.4l-7.77 7.78A1 1 0 0111 17z"/></symbol>
<symbol id="i-logo" viewBox="0 0 120 120" xmlns="http://www.w3.org/2000/svg"><path fill-rule="evenodd" clip-rule="evenodd" d="M40 0a8 8 0 00-8 8v40a8 8 0 008 8h40a8 8 0 008-8V8a8 8 0 00-8-8H40zm28 28a8 8 0 11-16 0 8 8 0 0116 0zm8 0c0 8.837-7.164 16-16 16s-16-7.163-16-16 7.164-16 16-16 16 7.163 16 16zM8 64a8 8 0 00-8 8v40a8 8 0 008 8h40a8 8 0 008-8V72a8 8 0 00-8-8H8zm13.072 36L28 88l6.928 12H21.072zm3.464-22c1.54-2.667 5.388-2.667 6.928 0l13.856 24c1.54 2.667-.384 6-3.464 6H14.144c-3.08 0-5.004-3.333-3.464-6l13.856-24zM72 64a8 8 0 00-8 8v40a8 8 0 008 8h40a8 8 0 008-8V72a8 8 0 00-8-8H72zm12 20h16v16H84V84zm-8 0a8 8 0 018-8h16a8 8 0 018 8v16a8 8 0 01-8 8H84a8 8 0 01-8-8V84z"/></symbol>
</svg>